<?xml version="1.0" standalone="no"?>
<!DOCTYPE svg PUBLIC "-//W3C//DTD SVG 1.0//EN" "http://www.w3.org/TR/2001/REC-SVG-20010904/DTD/svg10.dtd">
<svg xmlns="http://www.w3.org/2000/svg" xmlns:xlink="http://www.w3.org/1999/xlink" id="body_1" width="176" height="44">

<g transform="matrix(0.15827338 0 0 0.15827338 0.79136693 -0)">
    <path d="M82.3229 28.6444C 71.5367 15.8469 62.2485 2.84945 60.351 0.149971C 60.1512 -0.0499903 59.8515 -0.0499903 59.6518 0.149971C 57.7542 2.84945 48.4661 15.8469 37.6798 28.6444C -54.9019 146.721 52.2613 226.406 52.2613 226.406L52.2613 226.406L53.1601 227.006C 53.959 239.303 55.9565 257 55.9565 257L55.9565 257L59.9514 257L63.9463 257C 63.9463 257 65.9438 239.403 66.7428 227.006L66.7428 227.006L67.6416 226.306C 67.7414 226.306 174.905 146.721 82.3229 28.6444zM59.9514 224.606C 59.9514 224.606 55.1576 220.507 53.8592 218.407L53.8592 218.407L53.8592 218.208L59.6518 89.6325C 59.6518 89.2326 60.2511 89.2326 60.2511 89.6325L60.2511 89.6325L66.0436 218.208L66.0436 218.407C 64.7453 220.507 59.9514 224.606 59.9514 224.606z" stroke="none" fill="#FFFFFF" fill-rule="nonzero" />
    <path d="M260.501 197.588L215.845 89.2991L215.745 89L181.001 89L181.001 96.2791L186.608 96.2791C 188.31 96.2791 189.912 96.977 191.114 98.1736C 192.315 99.3702 192.916 100.966 192.916 102.661L192.916 102.661L191.915 211.647C 191.915 215.037 189.112 217.829 185.707 217.929L185.707 217.929L180 218.029L180 225.208L213.843 225.208L213.843 218.029L210.338 217.929C 206.934 217.829 204.13 215.037 204.13 211.647L204.13 211.647L204.13 108.943L252.792 225.208C 253.492 226.903 255.094 228 256.897 228C 258.699 228 260.301 226.903 261.002 225.208L261.002 225.208L308.562 111.535L309.263 211.647C 309.263 215.137 306.459 217.929 302.955 218.029L302.955 218.029L299.35 218.029L299.35 225.208L339 225.208L339 218.029L333.593 218.029C 330.189 218.029 327.385 215.137 327.285 211.747L327.285 211.747L326.985 102.76C 326.985 99.2704 329.788 96.4785 333.193 96.3788L333.193 96.3788L339 96.2791L339 89L305.157 89L260.501 197.588z" stroke="none" fill="#FFFFFF" fill-rule="nonzero" />
    <path d="M571.869 216.955C 570.764 215.849 570.162 214.342 570.162 212.533L570.162 212.533L570.162 158.663C 570.162 148.412 567.151 140.372 561.127 134.643C 555.205 128.915 546.973 126 536.734 126C 522.378 126 511.035 131.829 503.104 143.286C 503.004 143.487 502.703 143.588 502.402 143.588C 502.1 143.588 501.9 143.387 501.9 143.085L501.9 143.085L498.185 128.714L491.961 128.714L476 137.859L476 142.884L480.116 142.884C 482.023 142.884 483.629 143.387 484.734 144.392C 485.838 145.397 486.44 146.905 486.44 149.015L486.44 149.015L486.44 212.432C 486.44 214.241 485.838 215.749 484.734 216.854C 483.629 217.96 482.124 218.563 480.317 218.563L480.317 218.563L476.301 218.563L476.301 225.899L513.042 225.899L513.042 218.563L509.027 218.563C 507.22 218.563 505.714 217.96 504.61 216.854C 503.506 215.749 502.903 214.241 502.903 212.432L502.903 212.432L502.903 170.623C 502.903 165.296 504.108 159.97 506.317 154.744C 508.625 149.618 512.038 145.296 516.556 141.98C 521.073 138.663 526.494 137.055 532.718 137.055C 539.745 137.055 545.066 139.266 548.378 143.688C 551.691 148.111 553.398 153.839 553.398 160.673L553.398 160.673L553.398 212.533C 553.398 214.342 552.795 215.849 551.691 216.955C 550.587 218.06 549.081 218.663 547.274 218.663L547.274 218.663L543.259 218.663L543.259 226L580 226L580 218.663L575.985 218.663C 574.479 218.663 573.073 218.161 571.869 216.955z" stroke="none" fill="#FFFFFF" fill-rule="nonzero" />
    <path d="M907.546 97.212C 897.39 91.8041 886.039 89 873.792 89L873.792 89L826 89L826 96.3107L830.68 96.3107C 832.472 96.3107 834.065 97.0117 835.658 98.614C 837.152 100.116 837.948 101.819 837.948 103.621L837.948 103.621L837.948 211.379C 837.948 213.181 837.152 214.884 835.658 216.386C 834.165 217.888 832.472 218.689 830.68 218.689L830.68 218.689L826 218.689L826 226L873.792 226C 886.039 226 897.39 223.196 907.546 217.788C 917.701 212.38 925.966 204.368 931.94 194.154C 937.914 183.939 941 171.621 941 157.6C 941 143.58 937.914 131.362 931.94 121.047C 925.866 110.632 917.701 102.62 907.546 97.212zM921.784 157.4C 921.784 170.219 919.494 181.034 915.013 189.747C 910.533 198.46 904.558 204.969 897.19 209.175C 889.823 213.382 881.658 215.485 872.896 215.485L872.896 215.485L863.238 215.485C 861.446 215.485 859.853 214.784 858.26 213.181C 856.766 211.679 855.97 209.977 855.97 208.174L855.97 208.174L855.97 106.626C 855.97 104.823 856.667 103.221 858.26 101.618C 859.753 100.116 861.446 99.3151 863.238 99.3151L863.238 99.3151L872.896 99.3151C 881.658 99.3151 889.823 101.418 897.19 105.624C 904.558 109.83 910.533 116.34 915.013 125.053C 919.494 133.765 921.784 144.581 921.784 157.4z" stroke="none" fill="#FFFFFF" fill-rule="nonzero" />
    <path d="M1053.97 164.711C 1049.55 159.603 1041.02 155.297 1030.99 152.993C 1044.84 146.083 1051.96 136.369 1051.96 123.851C 1051.96 117.041 1050.16 110.932 1046.54 105.724C 1042.93 100.517 1037.81 96.3107 1031.29 93.4064C 1024.76 90.5022 1017.13 89 1008.5 89L1008.5 89L954.402 89L954.402 96.3107L958.718 96.3107C 960.524 96.3107 962.13 97.0117 963.736 98.614C 965.242 100.116 966.045 101.819 966.045 103.621L966.045 103.621L966.045 211.379C 966.045 213.181 965.242 214.884 963.736 216.386C 962.231 217.888 960.524 218.689 958.718 218.689L958.718 218.689L954 218.689L954 226L1012.72 226C 1021.65 226 1029.98 224.498 1037.51 221.493C 1045.04 218.489 1051.06 214.083 1055.38 208.274C 1059.79 202.466 1062 195.355 1062 187.143C 1061.9 178.33 1059.29 170.92 1053.97 164.711zM986.621 213.281C 985.115 211.779 984.312 210.077 984.312 208.274L984.312 208.274L984.312 159.904L1012.22 159.904C 1022.05 159.904 1029.58 162.407 1034.8 167.414C 1040.02 172.422 1042.63 178.931 1042.63 186.943C 1042.63 191.75 1041.42 196.457 1039.22 200.763C 1036.91 205.17 1033.49 208.675 1028.88 211.379C 1024.36 214.083 1018.74 215.485 1012.22 215.485L1012.22 215.485L991.639 215.485C 989.833 215.585 988.227 214.884 986.621 213.281zM984.413 149.588L984.413 106.626C 984.413 104.823 985.115 103.221 986.721 101.618C 988.227 100.116 989.933 99.3151 991.74 99.3151L991.74 99.3151L1004.99 99.3151C 1014.52 99.3151 1021.55 101.719 1025.97 106.325C 1030.38 111.032 1032.59 117.041 1032.59 124.452C 1032.59 132.063 1030.48 138.172 1026.37 142.779C 1022.25 147.285 1016.03 149.588 1007.8 149.588L1007.8 149.588L984.413 149.588z" stroke="none" fill="#FFFFFF" fill-rule="nonzero" />
    <path d="M431.999 132.387C 424.329 128.196 415.763 126 406.5 126C 397.237 126 388.571 128.096 381.001 132.387C 373.331 136.579 367.255 142.667 362.773 150.352C 358.291 158.037 356 167.02 356 177C 356 186.98 358.291 195.963 362.773 203.648C 367.255 211.333 373.331 217.421 381.001 221.613C 388.671 225.804 397.237 228 406.5 228C 415.763 228 424.429 225.904 431.999 221.613C 439.669 217.421 445.745 211.333 450.227 203.648C 454.709 195.963 457 186.98 457 177C 457 167.02 454.709 158.037 450.227 150.352C 445.745 142.568 439.669 136.579 431.999 132.387zM439.37 177C 439.37 189.276 436.382 199.256 430.405 206.442C 424.529 213.628 416.461 217.321 406.5 217.321C 396.54 217.321 388.471 213.628 382.595 206.442C 376.618 199.256 373.63 189.276 373.63 177C 373.63 164.724 376.618 154.744 382.595 147.558C 388.471 140.372 396.54 136.679 406.5 136.679C 416.461 136.679 424.529 140.372 430.405 147.558C 436.382 154.744 439.37 164.624 439.37 177z" stroke="none" fill="#FFFFFF" fill-rule="nonzero" />
    <path d="M784.999 132.387C 777.329 128.196 768.763 126 759.5 126C 750.237 126 741.571 128.096 734.001 132.387C 726.331 136.579 720.255 142.667 715.773 150.352C 711.291 158.037 709 167.02 709 177C 709 186.98 711.291 195.963 715.773 203.648C 720.255 211.333 726.331 217.421 734.001 221.613C 741.671 225.804 750.237 228 759.5 228C 768.763 228 777.429 225.904 784.999 221.613C 792.669 217.421 798.745 211.333 803.227 203.648C 807.709 195.963 810 186.98 810 177C 810 167.02 807.709 158.037 803.227 150.352C 798.745 142.568 792.569 136.579 784.999 132.387zM792.37 177C 792.37 189.276 789.381 199.256 783.405 206.442C 777.528 213.628 769.46 217.321 759.5 217.321C 749.539 217.321 741.471 213.628 735.595 206.442C 729.618 199.256 726.63 189.276 726.63 177C 726.63 164.624 729.618 154.744 735.595 147.558C 741.471 140.372 749.539 136.679 759.5 136.679C 769.46 136.679 777.528 140.372 783.405 147.558C 789.282 154.744 792.37 164.624 792.37 177z" stroke="none" fill="#FFFFFF" fill-rule="nonzero" />
    <path d="M642.64 126C 634.614 126 627.292 127.704 620.671 131.113C 614.05 134.522 608.834 139.135 605.122 145.05C 601.411 150.865 599.505 157.383 599.505 164.301C 599.505 170.517 600.909 176.232 603.818 181.346C 606.627 186.259 610.439 190.369 615.254 193.778L615.254 193.778L600.909 213.23C 599.103 215.636 598.903 218.844 600.207 221.451C 601.611 224.158 604.219 225.763 607.229 225.763L607.229 225.763L611.342 225.763C 607.329 228.47 604.119 231.678 601.912 235.488C 599.304 239.799 598 244.311 598 248.923C 598 257.546 601.812 264.665 609.335 269.979C 616.759 275.293 627.191 278 640.332 278C 649.461 278 658.188 276.496 666.113 273.588C 674.138 270.681 680.658 266.369 685.473 260.755C 690.389 255.14 692.897 248.322 692.897 240.501C 692.897 232.28 689.887 226.464 682.865 220.85C 676.847 216.137 667.417 213.631 655.68 213.631L655.68 213.631L615.555 213.631C 615.455 213.631 615.354 213.53 615.354 213.53C 615.354 213.53 615.254 213.33 615.354 213.23L615.354 213.23L625.787 199.193C 628.596 200.496 631.204 201.298 633.511 201.799C 635.918 202.301 638.627 202.501 641.636 202.501C 650.063 202.501 657.687 200.797 664.307 197.388C 670.928 193.979 676.245 189.367 680.057 183.451C 683.868 177.636 685.774 171.119 685.774 164.201C 685.774 156.781 682.163 143.245 672.332 136.327C 672.332 136.227 672.433 136.227 672.433 136.227L672.433 136.227L694 138.633L694 128.707L659.492 128.707C 654.075 126.902 648.458 126 642.64 126zM654.677 188.765C 650.865 190.77 646.752 191.873 642.64 191.873C 635.919 191.873 630 189.467 624.984 184.755C 619.969 180.042 617.461 173.124 617.461 164.301C 617.461 155.478 619.969 148.559 624.984 143.847C 630 139.135 635.919 136.728 642.64 136.728C 646.853 136.728 650.865 137.731 654.677 139.836C 658.489 141.842 661.599 144.95 664.107 149.061C 666.514 153.172 667.818 158.285 667.818 164.301C 667.818 170.417 666.614 175.53 664.107 179.541C 661.699 183.652 658.489 186.66 654.677 188.765zM627.492 225.662L654.677 225.662C 662.201 225.662 667.016 227.166 670.226 230.375C 673.436 233.583 675.041 237.894 675.041 242.908C 675.041 250.227 672.132 256.243 666.314 260.755C 660.495 265.267 652.671 267.573 643.041 267.573C 634.614 267.573 627.592 265.668 622.476 262.058C 617.36 258.449 614.752 252.934 614.752 245.916C 614.752 241.504 615.956 237.393 618.364 233.784C 620.771 230.174 623.68 227.567 627.492 225.662z" stroke="none" fill="#FFFFFF" fill-rule="nonzero" />
    <path d="M1082.35 224.327C 1080.37 223.244 1078.88 221.669 1077.69 219.799C 1076.6 217.831 1076 215.764 1076 213.5C 1076 211.236 1076.6 209.071 1077.69 207.201C 1078.78 205.232 1080.37 203.756 1082.35 202.673C 1084.34 201.591 1086.52 201 1089 201C 1091.48 201 1093.66 201.591 1095.65 202.673C 1097.63 203.756 1099.12 205.331 1100.31 207.201C 1101.4 209.169 1102 211.236 1102 213.5C 1102 215.764 1101.4 217.929 1100.31 219.799C 1099.22 221.768 1097.63 223.244 1095.65 224.327C 1093.66 225.409 1091.48 226 1089 226C 1086.62 226 1084.34 225.409 1082.35 224.327zM1094.56 222.85C 1096.24 221.965 1097.44 220.587 1098.43 219.012C 1099.32 217.339 1099.82 215.469 1099.82 213.402C 1099.82 211.335 1099.32 209.465 1098.43 207.791C 1097.53 206.118 1096.24 204.839 1094.56 203.953C 1092.87 203.067 1091.08 202.575 1089 202.575C 1086.92 202.575 1085.13 203.067 1083.44 203.953C 1081.76 204.839 1080.56 206.217 1079.57 207.791C 1078.68 209.465 1078.18 211.335 1078.18 213.402C 1078.18 215.469 1078.68 217.339 1079.57 219.012C 1080.47 220.685 1081.76 221.965 1083.44 222.85C 1085.13 223.736 1086.92 224.228 1089 224.228C 1091.08 224.228 1092.97 223.835 1094.56 222.85zM1083.64 219.406L1083.64 218.52L1083.84 218.421L1084.44 218.421C 1084.63 218.421 1084.83 218.323 1084.93 218.224C 1085.13 218.028 1085.13 217.929 1085.13 217.732L1085.13 217.732L1085.13 208.579C 1085.13 208.382 1085.03 208.185 1084.93 208.087C 1084.73 207.89 1084.63 207.89 1084.44 207.89L1084.44 207.89L1083.84 207.89L1083.64 207.791L1083.64 206.906L1083.84 206.807L1089 206.807C 1090.49 206.807 1091.58 207.102 1092.47 207.791C 1093.37 208.48 1093.76 209.366 1093.76 210.547C 1093.76 211.433 1093.47 212.319 1092.77 212.909C 1092.08 213.598 1091.28 213.992 1090.29 214.091L1090.29 214.091L1091.48 214.484L1093.76 218.126C 1093.96 218.421 1094.16 218.52 1094.46 218.52L1094.46 218.52L1095.05 218.52L1095.15 218.618L1095.15 219.504L1095.05 219.602L1091.98 219.602L1091.78 219.504L1088.6 214.189L1087.81 214.189L1087.81 217.732C 1087.81 217.929 1087.91 218.126 1088.01 218.224C 1088.21 218.421 1088.31 218.421 1088.5 218.421L1088.5 218.421L1089.1 218.421L1089.3 218.52L1089.3 219.406L1089.1 219.504L1083.84 219.504L1083.64 219.406zM1088.7 213.008C 1089.5 213.008 1090.19 212.811 1090.59 212.319C 1090.98 211.925 1091.28 211.236 1091.28 210.449C 1091.28 209.661 1091.08 209.071 1090.69 208.579C 1090.29 208.087 1089.69 207.89 1089 207.89L1089 207.89L1088.6 207.89C 1088.4 207.89 1088.21 207.988 1088.11 208.087C 1087.91 208.283 1087.91 208.382 1087.91 208.579L1087.91 208.579L1087.91 213.008L1088.7 213.008z" stroke="none" fill="#FFFFFF" fill-rule="nonzero" />
</g>
</svg>
